# xmcd
#
# Track frame offsets: 
#        150
#        16021
#        32623
#        45669
#        61827
#        74208
#        90013
#        106731
#        121584
#        135177
#        151032
#
# Disc length: 2293 seconds
#
# Revision: 0
# Processed by: cddbd v1.5.2PL0 Copyright (c) Steve Scherf et al.
# Submitted via: ExactAudioCopy v0.99pb4
#
DISCID=7108f30b
DTITLE=Lorrie Morgan - Greatest Hits
DYEAR=1995
DGENRE=Corporate Country
TTITLE0=Five Minutes
TTITLE1=Dear Me
TTITLE2=Except for Monday
TTITLE3=A Picture of Me (Without You)
TTITLE4=What Part of No
TTITLE5='Til a Tear Becomes a Rose
TTITLE6=Back in Your Arms Again
TTITLE7=I Didn't Know My Own Strength
TTITLE8=Standing Tall
TTITLE9=Watch Me
TTITLE10=Something in Red
EXTD=
EXTT0=
EXTT1=
EXTT2=
EXTT3=
EXTT4=
EXTT5=
EXTT6=
EXTT7=
EXTT8=
EXTT9=
EXTT10=
PLAYORDER=
